<?xml version="1.0" encoding="UTF-8" standalone="no"?>
<svg
   version="1.1"
   width="6.2546639in"
   height="6.5392327in"
   viewBox="0 0 450.33671 470.82532"
   id="svg7"
   xmlns="http://www.w3.org/2000/svg"
   xmlns:svg="http://www.w3.org/2000/svg">
  <defs
     id="defs7" />
  <path
     d="m 29.120378,282.8439 c 3.3838,-12.1488 6.7661,-21.4631 10.1214,-28.3677 -4.4444,-5.4959 -9.1068,-8.4632 -13.9076,-7.4971 -0.2906,0.0737 -0.5916,0.1499 -0.9043,0.2285 -0.0017,5e-4 -0.0031,8e-4 -0.0048,10e-4 -7.7695,2.3666 -15.8852995,15.1934 -24.01339951,44.3741 z"
     style="fill:#5f4391;fill-rule:evenodd;stroke:#1b1918;stroke-width:0.5669;stroke-linecap:butt;stroke-linejoin:miter;stroke-dasharray:none"
     id="path2" />
  <path
     d="m 308.19068,71.383002 c 22.9853,68.864598 22.5046,196.530198 -4.7066,269.983298 -1.8162,4.9036 -3.7519,9.5655 -5.8076,13.9521 -11.5753,24.7002 -24.9622,43.571 -39.3631,57.2834 -18.3668,17.4968 -38.383,26.6003 -58.3874,28.7073 -6.0806,0.6426 -12.1601,0.6372 -18.1919,0.0249 l 45.0405,7.1039 c 22.2409,3.5082 45.9842,1.5491 70.3029,-6.7694 18.6304,-6.3726 37.5985,-16.4775 56.4874,-30.7159 7.5677,-5.7045 14.5103,-12.833 20.8341,-21.14 63.9499,-83.9999 64.6251,-288.4583 8.2769,-358.638498 -24.7995,-26.3917003 -49.2319,-34.5033003 -70.9818,-29.4897003 l -59.1115,13.6270003 c 8.6962,-1.8884 17.3906,-0.0932 25.6612,6.0795 11.077,8.2621 21.3954,24.372 29.9469,49.9921 z"
     style="fill:#5f4391;fill-rule:evenodd;stroke:#1b1918;stroke-width:0.5669;stroke-linecap:butt;stroke-linejoin:miter;stroke-dasharray:none"
     id="path3" />
  <path
     d="m 303.48408,341.3663 c -100.1418,-98.7988 -83.1113,-262.126498 -25.2403,-319.975398 -8.2706,-6.1727 -16.965,-7.9679 -25.6612,-6.0795 -69.4899,15.0903 -139.1034,265.381798 5.7325,397.292298 14.3992,-13.7143 27.7861,-32.5851 39.3614,-57.2853 2.0557,-4.3866 3.9914,-9.0485 5.8076,-13.9521 z"
     style="fill:#f8a941;fill-rule:evenodd;stroke:#1b1918;stroke-width:0.5669;stroke-linecap:butt;stroke-linejoin:miter;stroke-dasharray:none"
     id="path5" />
  <path
     d="m 199.92598,441.3091 c -46.3139,-17.5437 -83.306,-60.2737 -100.793202,-118.3899 -9.4184,-31.3007 -25.1153,-84.1223 -42.9149,-84.8517 -1.3382,-0.0547 -2.6886,0.1851 -4.0481,0.7501 -18.8671,5.7447 -18.0731,5.9363 -26.8356,8.1615 1.5024,-0.3022 2.9914,-0.2194 4.4643,0.2058 3.1496,0.8926 6.1738,3.3386 9.1264,6.904 0.1057,0.1276 0.2115,0.2569 0.3169,0.3873 0.053,0.0654 0.106,0.1312 0.1588,0.1972 12.7933,16.0104 23.7702,52.8792 31.0235,76.9848 17.2686,57.3891 57.271402,98.6754 101.284102,108.0944 l 10.0259,1.5814 c 6.0318,0.6123 12.1113,0.6177 18.1919,-0.0249 z"
     style="fill:#f8a941;fill-rule:evenodd;stroke:#1b1918;stroke-width:0.5669;stroke-linecap:butt;stroke-linejoin:miter;stroke-dasharray:none"
     id="path6" />
  <path
     d="m 353.56488,410.9526 c -18.8889,14.2384 -37.857,24.3433 -56.4874,30.7159 18.3005,11.247 38.986,20.9857 62.28,28.8451 l 90.2197,-57.375 c -28.1599,-5.2398 -53.1349,-13.2035 -75.1782,-23.326 -6.3238,8.307 -13.2664,15.4355 -20.8341,21.14 z"
     style="fill:#f8a941;fill-rule:evenodd;stroke:#1b1918;stroke-width:0.5669;stroke-linecap:butt;stroke-linejoin:miter;stroke-dasharray:none"
     id="path7" />
</svg>
